PathFileType        4      (X/Y/Z)      C:\Users\pc\Desktop\IMUTRC\Sujet_02\Sujet_02_velo_80.trc         
DataRate	CameraRate	NumFrames	NumMarkers	Units	OrigDataRate	OrigDataStartFrame	OrigNumFrames
60.0	60.0	4	64	mm	60.0	709	945
Frame#	Time	pHipOrigin			pRightASI			pLeftASI			pRightCSI			pLeftCSI			pRightIschialTub			pLeftIschialTub			pSacrum			pL5SpinalProcess			pL3SpinalProcess			pT12SpinalProcess			pIJ			pT4SpinalProcess			pT8SpinalProcess			pPX			pC7SpinalProcess			pTopOfHead			pRightAuricularis			pLeftAuricularis			pBackOfHead			pRightAcromion			pLeftAcromion			pRightArmLatEpicondyle			pRightArmMedEpicondyle			pLeftArmLatEpicondyle			pLeftArmMedEpicondyle			pRightUlnarStyloid			pRightRadialStyloid			pRightOlecranon			pLeftUlnarStyloid			pLeftRadialStyloid			pLeftOlecranon			pRightTopOfHand			pRightPinky			pRightBallHand			pLeftTopOfHand			pLeftPinky			pLeftBallHand			pRightGreaterTrochanter			pRightKneeLatEpicondyle			pRightKneeMedEpicondyle			pRightPatella			pLeftGreaterTrochanter			pLeftKneeLatEpicondyle			pLeftKneeMedEpicondyle			pLeftPatella			pRightTibialTub			pRightLatMalleolus			pRightMedMalleolus			pLeftTibialTub			pLeftLatMalleolus			pLeftMedMalleolus			pRightHeelFoot			pRightFirstMetatarsal			pRightFifthMetatarsal			pRightPivotFoot			pRightHeelCenter			pRightToe			pLeftHeelFoot			pLeftFirstMetatarsal			pLeftFifthMetatarsal			pLeftPivotFoot			pLeftHeelCenter			pLeftToe			
		X1	Y1	Z1	X2	Y2	Z2	X3	Y3	Z3	X4	Y4	Z4	X5	Y5	Z5	X6	Y6	Z6	X7	Y7	Z7	X8	Y8	Z8	X9	Y9	Z9	X10	Y10	Z10	X11	Y11	Z11	X12	Y12	Z12	X13	Y13	Z13	X14	Y14	Z14	X15	Y15	Z15	X16	Y16	Z16	X17	Y17	Z17	X18	Y18	Z18	X19	Y19	Z19	X20	Y20	Z20	X21	Y21	Z21	X22	Y22	Z22	X23	Y23	Z23	X24	Y24	Z24	X25	Y25	Z25	X26	Y26	Z26	X27	Y27	Z27	X28	Y28	Z28	X29	Y29	Z29	X30	Y30	Z30	X31	Y31	Z31	X32	Y32	Z32	X33	Y33	Z33	X34	Y34	Z34	X35	Y35	Z35	X36	Y36	Z36	X37	Y37	Z37	X38	Y38	Z38	X39	Y39	Z39	X40	Y40	Z40	X41	Y41	Z41	X42	Y42	Z42	X43	Y43	Z43	X44	Y44	Z44	X45	Y45	Z45	X46	Y46	Z46	X47	Y47	Z47	X48	Y48	Z48	X49	Y49	Z49	X50	Y50	Z50	X51	Y51	Z51	X52	Y52	Z52	X53	Y53	Z53	X54	Y54	Z54	X55	Y55	Z55	X56	Y56	Z56	X57	Y57	Z57	X58	Y58	Z58	X59	Y59	Z59	X60	Y60	Z60	X61	Y61	Z61	X62	Y62	Z62	X63	Y63	Z63	X64	Y64	Z64	
709	11.8	0.0	1250.02096	7.654170837655508E-14	59.683600000000006	1365.20578	142.2006900000001	44.31054999999999	1366.7883	-146.43957999999992	-0.39562999999999265	1427.31967	119.64979000000008	-12.999270000000006	1428.6196	-116.93689999999991	-44.87573999999999	1180.05098	61.32264000000007	-51.1493	1180.67269	-56.970709999999926	-73.75672	1260.02474	3.956300000000082	-49.45374	1376.2269	4.182370000000087	-0.8477799999999994	1488.19016	9.38208000000009	54.93604	1585.11949	16.333860000000094	319.04726	1610.83543	12.49060000000008	205.78407	1719.97277	29.67224000000009	128.07105	1667.35399	23.963870000000096	216.01393	1534.5919	4.069340000000081	258.62892	1750.71887	33.79810000000009	496.45902	1768.1831	47.53211000000008	408.17703	1731.89819	100.03785000000008	415.63748	1763.15295	-25.263799999999918	399.02102	1795.42505	48.54944000000008	231.66957	1697.36535	229.23927000000012	247.77736	1734.385	-173.8510899999999	293.95302	1415.62033	298.64406000000014	257.27248	1390.2435	251.62062000000006	342.05032	1452.92258	-181.14197999999993	301.63955	1433.08457	-134.51416999999995	391.05191	1151.45259	354.4278800000001	429.42801	1162.98238	311.75637000000006	254.44655000000003	1404.93833	296.60939000000013	454.80484	1199.77596	-236.86927999999995	493.85916	1215.54464	-196.23242999999994	299.94399	1442.46665	-178.65515999999994	575.47196	1069.67024	315.03444	494.76346	1083.06513	354.82351	431.01053	1123.24983	338.82876000000005	643.91594	1157.16096	-152.26099999999997	573.26774	1150.09615	-209.17517999999998	501.65872	1178.24239	-212.45325999999994	24.02039000000001	1224.70064	175.9422700000001	275.18886	854.33453	147.51344000000003	276.88442	854.05194	60.92701000000004	314.24318	884.11981	101.95948000000004	31.98949999999999	1233.00887	-172.83374999999992	441.35342	1062.60542	-106.31140999999995	436.94498	1068.08772	-20.007569999999966	454.6918	1111.38093	-62.39648999999996	333.74209	816.58013	107.15919000000004	238.33876	395.34732	124.45387000000001	246.76003	396.19509	56.57508000000001	463.33914	1010.7779	-68.04833999999997	160.96485	714.62065	-155.82166999999995	158.02589	705.40813	-88.05590999999997	183.06361	285.58828	60.24878	366.12722	254.50307	70.36560999999999	339.50698	245.85573	153.73048	376.63967	245.4601	117.89770999999999	223.47438	276.20619	72.1742	455.87869	230.25661	141.63550999999998	35.83276999999999	675.84892	-112.35888999999996	140.78773	522.34452	-111.45459999999999	129.59705	538.7349	-197.13672999999997	149.09596	510.24955	-158.76062999999996	58.72277999999999	640.58134	-122.08008999999996	196.34547	443.33157	-177.69434999999996	
710	11.817	0.0	1250.02096	7.654170837655508E-14	59.45752000000001	1365.14926	142.37025000000008	43.858399999999996	1367.18393	-146.2700299999999	-0.8477799999999927	1427.0936	119.93238000000008	-13.620970000000007	1428.78916	-116.65429999999992	-44.59313999999999	1179.82491	61.20960000000007	-50.97974	1180.61617	-57.02722999999993	-73.81324	1259.79867	4.069340000000082	-49.84937	1376.11386	4.408450000000087	-1.2434099999999992	1488.13364	9.60815000000009	54.54041	1585.11949	16.333860000000094	318.65163	1610.4398	11.75586000000008	205.61452	1719.80321	29.050540000000094	127.84498	1667.29747	23.681280000000097	215.44874	1534.36582	3.786740000000081	258.51589	1750.49279	33.00684000000009	496.45902	1767.33532	45.94959000000008	408.29007	1731.44604	98.79444000000007	415.4114	1762.36169	-26.56371999999992	399.13406	1794.85986	47.19300000000008	231.4435	1697.59142	228.67409000000012	246.42091	1733.81982	-174.5858299999999	292.82265	1415.95944	299.6048800000001	256.14211	1390.41306	252.69447000000005	340.24172	1451.96177	-180.57678999999993	300.05703	1432.5759	-133.60986999999994	389.8085	1151.67866	355.50173000000007	428.1846	1163.20845	312.83022000000005	253.31618000000003	1405.27744	297.6267300000001	453.50491	1198.9847	-235.28675999999993	492.67227	1215.14901	-194.87598999999994	298.1354	1441.50583	-177.80737999999994	574.28507	1070.00935	316.1083	493.57657	1083.34773	355.89736	429.82364	1123.4759	339.90261000000004	642.72905	1156.48274	-150.96106999999998	572.08085	1149.47444	-207.81873999999996	500.47183	1177.62068	-211.04029999999995	22.94653000000001	1223.62679	175.9422700000001	263.94167	846.59149	146.89173000000002	266.03285	846.64801	60.36182000000004	304.01333	875.47247	101.67689000000004	33.289429999999996	1234.59139	-172.49463999999992	447.62698	1078.54365	-101.62036999999995	442.08816	1083.74336	-15.316529999999961	458.81766	1127.65828	-57.47936999999996	321.98623	807.36761	106.59400000000002	216.63563	388.39553	120.44105000000002	225.50905	389.5259	52.61878000000001	470.40396	1027.05524	-62.22692999999997	177.01612	723.04192	-153.67395999999994	172.83375	714.39458	-85.90820999999997	158.365	281.12331	54.76648000000001	340.35476	244.32973	64.71375	313.39541	235.56935	147.90907	350.5281	234.43898	112.13281999999998	198.43666	270.38478	66.63538	429.25845	216.5226	135.75757999999996	52.618779999999994	680.31389	-109.47644999999996	162.99952	530.65274	-107.89392999999998	151.01759	546.08231	-193.63257999999996	171.59034	518.55777	-155.14343999999997	76.75219999999999	645.83757	-119.02807999999996	221.21364	453.22232	-173.73804999999996	
711	11.833	0.0	1250.02096	7.654170837655508E-14	59.061890000000005	1365.03622	142.59632000000008	43.632329999999996	1367.57956	-146.0439499999999	-1.4129599999999927	1426.86753	120.27149000000009	-14.073120000000007	1428.95871	-116.25866999999991	-44.42358999999999	1179.54231	61.04004000000007	-50.75367	1180.61617	-57.196779999999926	-73.81324	1259.62911	4.012820000000081	-50.13196	1376.05734	4.634520000000087	-1.6390399999999994	1488.13364	9.83423000000009	54.25782	1585.06297	16.559940000000093	318.36904	1609.87462	11.473270000000078	205.61452	1719.52062	28.937500000000092	127.73194	1667.18444	23.794310000000095	214.9966	1534.02671	3.786740000000081	258.62892	1750.09716	32.72425000000009	496.68509	1766.31799	44.87574000000008	408.51614	1730.82433	98.17274000000008	415.29837	1761.40087	-27.35497999999992	399.41665	1794.12512	46.40174000000008	231.10439	1697.64794	228.5045300000001	245.29054	1733.36767	-174.81189999999992	291.7488	1416.129	300.84829000000013	255.01174000000003	1390.46957	253.99440000000007	338.54616	1451.00095	-179.72901999999993	298.58754	1432.01071	-132.36645999999993	388.73464	1151.7917	356.68862000000007	427.11075	1163.37801	314.01711000000006	252.24233000000004	1405.39047	298.92666000000014	452.37454	1198.19344	-233.47815999999995	491.65494	1214.69686	-193.29346999999996	296.49636	1440.60154	-176.67700999999994	573.38078	1070.34846	317.40822	492.61576	1083.5738	357.14077	428.8063	1123.64546	341.1460200000001	641.71171	1155.80452	-149.49158999999997	570.95048	1148.85274	-206.29273999999998	499.34146	1176.99898	-209.40125999999995	21.703130000000012	1222.77901	175.9987900000001	255.91603	841.4483	147.45692000000003	258.68544	841.78741	60.92701000000004	296.89199	869.7641	102.69422000000004	34.702389999999994	1236.17391	-172.0990099999999	452.77017	1092.67329	-96.87280999999996	446.10098	1097.42085	-10.68200999999996	461.92618	1141.95747	-52.50573999999996	312.83022	800.75494	107.32874000000002	193.74562	385.28701	115.75001000000002	203.35377	386.81301	48.04077000000001	476.56448	1041.75007	-56.235969999999966	194.81947	727.846	-150.67847999999995	189.28065	719.9334	-82.91272999999997	132.64906	280.33205	48.77552000000001	313.39541	237.99965	58.72277999999999	285.98391	229.06972	141.74853999999996	323.17312	227.26112	106.08533	172.3816	268.23708	60.64441000000001	401.28176	206.68837	129.65356999999997	71.15687	680.99211	-105.91577999999996	186.90687	535.51334	-103.54199999999999	174.1902	549.81254	-189.33716999999996	195.8368	523.36185	-150.67847999999998	96.5337	647.36357	-115.29785999999996	247.77736	459.72195	-168.99049	
712	11.85	0.0	1250.02096	7.654170837655508E-14	58.66626000000001	1364.92319	142.87892000000008	43.51928999999999	1367.91867	-145.7613599999999	-1.8651099999999927	1426.64145	120.55409000000009	-14.299200000000008	1429.12827	-116.03259999999992	-44.36706999999999	1179.37276	60.927010000000074	-50.58411	1180.61617	-57.36633999999993	-73.86976	1259.45956	3.956300000000082	-50.35804	1376.00082	4.804080000000087	-1.8085899999999993	1488.07712	10.116820000000091	54.2013	1585.00645	16.786010000000093	318.36904	1609.25291	11.360230000000078	205.89711	1719.18151	28.937500000000092	127.84498	1667.01488	23.907350000000097	214.77052	1533.63108	3.8432600000000803	258.96803	1749.58849	32.61121000000009	497.08072	1765.24413	44.14099000000008	409.02481	1730.08959	97.77711000000006	415.46792	1760.38354	-27.863649999999918	399.8688	1793.27734	45.89307000000009	230.99135	1697.59142	228.5045300000001	244.66884	1732.91552	-174.9249399999999	290.95754	1416.129	301.9221400000001	254.27699000000004	1390.35654	255.12477000000007	337.41579	1450.15317	-178.82471999999996	297.62673	1431.50205	-131.23608999999993	388.11294	1151.7917	357.81899000000004	426.48904	1163.37801	315.14748000000003	251.45107000000002	1405.27744	299.9439900000001	451.6398	1197.40218	-231.78260999999995	491.03324	1214.24471	-191.82398999999995	295.36599	1439.69724	-175.54663999999994	572.87211	1070.63105	318.59511	492.05057	1083.74336	358.32766	428.24112	1123.70198	342.27639000000005	641.03349	1155.06978	-148.07861999999997	570.27225	1148.17451	-204.82325999999998	498.66324	1176.37727	-207.81873999999993	20.68579000000001	1222.27034	176.05531000000008	251.90321	839.07452	148.47425000000004	255.46388	839.6397	61.94434000000003	293.50087	867.16424	104.10718000000004	35.77624999999999	1237.3608	-171.7598999999999	456.2178	1102.84663	-93.14257999999995	448.64432	1107.25508	-7.00829999999996	463.90433	1152.24385	-48.60595999999996	307.40444	796.62908	108.28956000000002	172.6642	385.96524	110.83289000000002	182.89406	387.88687	43.18018000000001	481.65115	1052.65815	-51.43188999999997	212.67934	728.24163	-147.51343999999995	206.1797	720.78118	-79.80419999999997	108.28956	284.00576	42.728030000000004	287.45339	235.28676	52.44922	259.58974	226.41335	135.30542999999997	296.72243	223.64394	99.64222	147.51344	270.4413	54.48389000000001	373.9833	200.18873	123.15393999999999	90.37317	676.97929	-102.35510999999995	211.88808	536.24808	-99.13354999999999	198.43666	549.36039	-185.04175999999998	221.21364	524.09659	-146.27002999999996	117.04993	644.25505	-111.56762999999997	275.58449	462.49136	-164.18641	
